<?xml version="1.0" encoding="iso-8859-1"?>
<svg xmlns="http://www.w3.org/2000/svg" xmlns:xlink="http://www.w3.org/1999/xlink" x="0px" y="0px" viewBox="0 0 512 512" width="512px" height="512px">
	<path d="M256,82.093c-130.423,0-209.408,144.618-139.756,254.162c15.539,24.44,37.141,44.346,62.67,57.802v20.277     c0,10.523,7.025,19.429,16.63,22.29v15.357c0,12.214,9.465,22.251,21.442,23.179v13.584c0,12.823,10.434,23.255,23.257,23.255     h31.51c12.824,0,23.257-10.433,23.257-23.255v-13.584c11.98-0.928,21.446-10.966,21.446-23.18v-15.356     c9.606-2.86,16.632-11.768,16.632-22.291v-20.277c53.324-28.11,88.405-83.769,88.405-146.469     C421.495,156.333,347.254,82.093,256,82.093z M280.009,488.745c0,4.551-3.703,8.255-8.257,8.255h-31.51     c-4.553,0-8.257-3.703-8.257-8.255v-13.507h48.023V488.745z M301.456,451.98c0,4.553-3.703,8.257-8.257,8.257     c-7.961,0-61.528,0-74.4,0c-4.551,0-8.255-3.703-8.255-8.257v-14.39c9.886,0,81.43,0,90.911,0V451.98z M322.281,382.727     c-2.566,1.262-4.192,3.872-4.192,6.732v24.875c0,4.152-3.004,8.256-9.132,8.256h-28.824v-65.834c0-4.143-3.357-7.5-7.5-7.5     s-7.5,3.357-7.5,7.5v65.834h-18.263V297.049c0-4.551,3.703-8.255,8.255-8.255h1.752c4.553,0,8.257,3.703,8.257,8.255v33.705     c0,4.143,3.357,7.5,7.5,7.5c4.143,0,7.5-3.357,7.5-7.5c0-36.968,0.449-36.774-1.507-41.96h17.639c4.143,0,7.5-3.358,7.5-7.5     c0-4.143-3.357-7.5-7.5-7.5h-80.53c-4.143,0-7.5,3.357-7.5,7.5c0,4.142,3.357,7.5,7.5,7.5h17.653     c-2.119,5.561-1.519-2.863-1.519,133.795c-11.321,0-18.362,0-29.699,0c-4.551,0-8.255-3.703-8.255-8.256v-24.875     c0-2.859-1.626-5.471-4.192-6.732c-51.945-25.524-84.215-77.306-84.215-135.14c0-82.982,67.511-150.493,150.493-150.493     s150.493,67.511,150.493,150.493C406.494,305.417,374.225,357.202,322.281,382.727z"/>
	<path class="line" d="M59.49,238.522H17.476c-4.142,0-7.5,3.357-7.5,7.5s3.358,7.5,7.5,7.5h42.015c4.142,0,7.5-3.357,7.5-7.5     C66.99,241.88,63.633,238.522,59.49,238.522z"/>
	<path class="line" d="M494.524,238.522h-42.017c-4.143,0-7.5,3.357-7.5,7.5s3.357,7.5,7.5,7.5h42.017c4.143,0,7.5-3.357,7.5-7.5     S498.667,238.522,494.524,238.522z"/>
	<path class="line" d="M111.743,379.672l-29.709,29.707c-2.93,2.929-2.93,7.678-0.001,10.608c1.465,1.465,3.384,2.197,5.304,2.197     c1.919,0,3.839-0.732,5.303-2.196l29.709-29.707c2.93-2.929,2.93-7.678,0.001-10.608     C119.421,376.745,114.672,376.744,111.743,379.672z"/>
	<path class="line" d="M394.95,114.571c1.919,0,3.839-0.732,5.303-2.196l29.711-29.709c2.93-2.929,2.93-7.678,0.001-10.607     c-2.929-2.93-7.678-2.929-10.607-0.001l-29.711,29.709c-2.93,2.929-2.93,7.678-0.001,10.607     C391.111,113.839,393.03,114.571,394.95,114.571z"/>
	<path class="line" d="M400.257,379.672c-2.93-2.928-7.679-2.928-10.609,0c-2.929,2.93-2.929,7.678,0,10.608     c32.255,32.254,30.867,31.903,35.011,31.903c6.624,0,10.043-8.065,5.304-12.805L400.257,379.672z"/>
	<path class="line" d="M117.046,114.571c1.919,0,3.839-0.732,5.304-2.196c2.929-2.93,2.929-7.678,0-10.608L92.642,72.058     c-2.93-2.928-7.678-2.928-10.608,0c-2.929,2.93-2.929,7.678,0,10.608C114.543,115.176,112.908,114.571,117.046,114.571z"/>
	<path class="line" d="M256,57.015c4.143,0,7.5-3.357,7.5-7.5V7.5c0-4.143-3.357-7.5-7.5-7.5s-7.5,3.357-7.5,7.5v42.015     C248.499,53.657,251.857,57.015,256,57.015z"/>
</svg>
