<?xml version="1.0" encoding="utf-8"?>
<svg version="1.1" xmlns="http://www.w3.org/2000/svg" xmlns:xlink="http://www.w3.org/1999/xlink" x="0px" y="0px"
	 viewBox="0 0 512 512" xml:space="preserve">
<path d="M64,42.7H21.3C8.5,42.7,0,51.2,0,64v42.7C0,119.5,8.5,128,21.3,128H64c12.8,0,21.3-8.5,21.3-21.3V64
	C85.3,51.2,76.8,42.7,64,42.7z"/>
<path d="M64,213.3H21.3C8.5,213.3,0,221.9,0,234.7v42.7c0,12.8,8.5,21.3,21.3,21.3H64c12.8,0,21.3-8.5,21.3-21.3v-42.7
	C85.3,221.9,76.8,213.3,64,213.3z"/>
<path d="M64,384H21.3C8.5,384,0,392.5,0,405.3V448c0,12.8,8.5,21.3,21.3,21.3H64c12.8,0,21.3-8.5,21.3-21.3v-42.7
	C85.3,392.5,76.8,384,64,384z"/>
<path d="M490.7,42.7H192c-12.8,0-21.3,8.5-21.3,21.3v42.7c0,12.8,8.5,21.3,21.3,21.3h298.7c12.8,0,21.3-8.5,21.3-21.3
	V64C512,51.2,503.5,42.7,490.7,42.7z"/>
<path d="M490.7,213.3H192c-12.8,0-21.3,8.5-21.3,21.3v42.7c0,12.8,8.5,21.3,21.3,21.3h298.7c12.8,0,21.3-8.5,21.3-21.3
	v-42.7C512,221.9,503.5,213.3,490.7,213.3z"/>
<path d="M490.7,384H192c-12.8,0-21.3,8.5-21.3,21.3V448c0,12.8,8.5,21.3,21.3,21.3h298.7c12.8,0,21.3-8.5,21.3-21.3
	v-42.7C512,392.5,503.5,384,490.7,384z"/>
</svg>
