<?xml version="1.0" encoding="utf-8"?>
<svg version="1.1" baseProfile="basic" id="Layer_1"
	 xmlns="http://www.w3.org/2000/svg" xmlns:xlink="http://www.w3.org/1999/xlink" x="0px" y="0px" viewBox="0 0 336 440"
	 xml:space="preserve">
<g id="right-leg">
	<path id="right-leg-bottom" d="M140.9,425H139c-9.8,0-17.7-7.9-17.7-17.7V330c0-9.8,7.9-17.7,17.7-17.7h1.8
		c9.8,0,17.7,7.9,17.7,17.7v77.3C158.6,417.1,150.7,425,140.9,425z"/>
	<path id="right-leg-top" d="M140.9,349.5H139c-9.8,0-17.7-7.9-17.7-17.7v-79.2c0-9.8,7.9-17.7,17.7-17.7h1.8
		c9.8,0,17.7,7.9,17.7,17.7v79.2C158.6,341.6,150.7,349.5,140.9,349.5z"/>
</g>
<g id="left-leg">
	<path id="left-leg-bottom" d="M196.9,425H195c-9.8,0-17.7-7.9-17.7-17.7V330c0-9.8,7.9-17.7,17.7-17.7h1.8
		c9.8,0,17.7,7.9,17.7,17.7v77.3C214.6,417.1,206.7,425,196.9,425z"/>
	<path id="left-leg-top" d="M196.9,349.5H195c-9.8,0-17.7-7.9-17.7-17.7v-79.2c0-9.8,7.9-17.7,17.7-17.7h1.8
		c9.8,0,17.7,7.9,17.7,17.7v79.2C214.6,341.6,206.7,349.5,196.9,349.5z"/>
</g>
<path id="body" d="M170.3,108.2h-4.5c-24.5,0-44.3,19.8-44.3,44.3v104.8h93.2V152.5C214.6,128,194.7,108.2,170.3,108.2z"/>
<g id="right-arm">
	<path id="right-arm-bottom" d="M324.5,127.5v-1.4c0-7.3-6-13.3-13.3-13.3H254c-7.3,0-13.3,6-13.3,13.3v1.4c0,7.3,6,13.3,13.3,13.3
		h57.3C318.6,140.8,324.5,134.8,324.5,127.5z"/>
	<path id="right-arm-top" d="M268.6,127.5v-1.4c0-7.3-6-13.3-13.3-13.3h-48c-7.3,0-13.3,6-13.3,13.3v1.4c0,7.3,6,13.3,13.3,13.3h48
		C262.7,140.8,268.6,134.8,268.6,127.5z"/>
</g>
<g id="left-arm">
	<path id="left-arm-bottom" d="M11.1,126.1v1.4c0,7.3,6,13.3,13.3,13.3h57.3c7.3,0,13.3-6,13.3-13.3v-1.4c0-7.3-6-13.3-13.3-13.3
		H24.4C17,112.8,11.1,118.8,11.1,126.1z"/>
	<path id="left-arm-top" d="M67,126.1v1.4c0,7.3,6,13.3,13.3,13.3h48c7.3,0,13.3-6,13.3-13.3v-1.4c0-7.3-6-13.3-13.3-13.3h-48
		C73,112.8,67,118.8,67,126.1z"/>
</g>
<circle id="head" cx="168.2" cy="56.9" r="41.9"/>
</svg>
