<?xml version="1.0" encoding="utf-8"?>
<svg version="1.1" xmlns="http://www.w3.org/2000/svg" xmlns:xlink="http://www.w3.org/1999/xlink" x="0px" y="0px"
	 viewBox="0 0 512 512">
<path d="M442.8,436c35.2-35.2,58.1-77.9,68.9-123c3.1-12.9-12.8-21.6-22.2-12.2c-0.1,0.1-0.2,0.2-0.3,0.3
	c-78.3,78.3-206.1,76.8-282.4-4.5c-72-76.6-71-195.6,2.1-271.2c0.9-1,1.9-1.9,2.8-2.8c9.4-9.3,0.6-25.1-12.3-22.1
	c-44.7,10.6-87.1,33.2-122.1,67.9C-25.2,169.6-25.8,333.8,75.9,435.7C177.1,537.2,341.4,537.3,442.8,436z"/>
</svg>
