<?xml version="1.0" encoding="utf-8"?>
<svg version="1.1" xmlns="http://www.w3.org/2000/svg" xmlns:xlink="http://www.w3.org/1999/xlink" x="0px" y="0px" viewBox="0 0 510 510">
<path d="M483.9,201.5l-22.5-3.8c-4.7-16.9-11.4-33-19.9-48l13.3-18.6c8.9-12.6,7.6-29.7-3.4-40.6l-31.7-31.7c-6-6-13.8-9.3-22.3-9.3
  c-6.6,0-12.9,2-18.2,5.9l-18.6,13.2c-15.4-8.7-31.9-15.6-49.3-20.3l-3.7-22C305,11.1,291.9,0,276.5,0h-44.9
  c-15.4,0-28.6,11.1-31.1,26.3l-3.8,22.5c-17,4.8-33.1,11.7-48.1,20.3L130.4,56c-5.3-3.8-11.7-5.9-18.3-5.9c-8.4,0-16.4,3.3-22.3,9.3
  L58,91.2c-10.9,10.9-12.4,28-3.4,40.6L68,150.7c-8.4,15-15,31.2-19.6,48.1l-22,3.7C11.1,205.1,0,218.2,0,233.6v44.9
  c0,15.4,11.1,28.6,26.3,31.1l22.7,3.9c4.8,16.9,11.6,33,20.2,47.9l-13.1,18.2c-8.9,12.6-7.6,29.7,3.4,40.6l31.7,31.7
  c6,6,13.9,9.3,22.3,9.3c6.6,0,12.9-2,18.2-5.9l18.9-13.4c14.7,8.2,30.4,14.8,47,19.4l3.7,22.4c2.6,15.2,15.7,26.3,31.1,26.3h45
  c15.4,0,28.6-11.1,31.1-26.3l3.8-22.4c17-4.7,33.1-11.4,48.1-19.9l18.5,13.2c5.3,3.8,11.7,5.9,18.3,5.9c8.4,0,16.3-3.3,22.3-9.3
  l31.7-31.7c10.9-10.9,12.4-28,3.4-40.6l-13.2-18.5c8.5-15,15.3-31.2,20-48.1l22.3-3.7c15.2-2.6,26.3-15.7,26.3-31.1v-44.9
  C510.2,217.1,499.1,204,483.9,201.5z M255.1,379.9c-69,0-125-56-125-125s56-125,125-125c68.9,0,125,56,125,125
  S324,379.9,255.1,379.9z"/>
</svg>
