<?xml version="1.0" encoding="utf-8"?>
<svg version="1.1" xmlns="http://www.w3.org/2000/svg" xmlns:xlink="http://www.w3.org/1999/xlink" x="0px" y="0px"
	 viewBox="0 0 512 512">
<path d="M430.4,32.8l72.9,72.1c5.5,5.4,8.6,12.8,8.7,20.5c0,7.7-3,15.1-8.4,20.6l-73,73.9
	c-11.3,11.4-29.7,11.5-41.2,0.2c-5.8-5.7-8.7-13.2-8.7-20.7c0-7.4,2.8-14.8,8.4-20.5l22.9-23.2c-10.6,1.8-23.7,4.9-37.9,10.4
	c-20.9,8-40.3,19.5-57.7,34c-18.1,15.2-34.1,33.8-47.7,55.7c13.6,21.8,29.7,40.5,47.7,55.7c17.4,14.6,36.8,26,57.7,34
	c14.2,5.5,27.2,8.6,37.9,10.4L389.1,333c-5.6-5.7-8.4-13.1-8.4-20.5c0-7.5,2.9-15,8.7-20.7c11.4-11.3,29.9-11.2,41.2,0.2l73,73.9
	c5.4,5.5,8.5,12.9,8.4,20.6c0,7.7-3.2,15.1-8.7,20.5l-72.9,72.1c-11.4,11.3-29.9,11.2-41.2-0.2c-11.3-11.4-11.2-29.9,0.2-41.2
	l22.9-22.7c-14.9-1.9-34.4-5.8-56.1-13.9c-27.4-10.1-52.9-24.8-75.6-43.6c-16.8-13.8-32.1-29.9-45.8-48c-13.7,18.1-29,34.2-45.8,48
	c-22.8,18.8-48.2,33.4-75.6,43.6c-46.3,17.1-82.2,15.6-86.2,15.4C12,415.7,0,402.9,0,387.6c0-0.6,0-1.1,0-1.7
	c0.9-16.1,14.7-28.3,30.8-27.4c0.3,0,27.3,1.2,62.6-11.9c21.3-7.9,41.1-19.3,58.8-33.9c18.6-15.4,35.1-34.4,49-56.7
	c-14-22.3-30.4-41.4-49-56.7c-17.7-14.6-37.5-26-58.8-33.9c-35.3-13-62.3-11.9-62.6-11.9C14.8,154.5,1,142.2,0,126.1
	c0-0.6,0-1.1,0-1.7c0-15.3,12-28.1,27.4-29c3.9-0.2,39.8-1.7,86.2,15.4c27.4,10.1,52.9,24.8,75.6,43.6c16.8,13.8,32.1,29.9,45.8,48
	c13.7-18.1,29-34.2,45.8-48c22.8-18.8,48.2-33.4,75.6-43.6c21.7-8,41.2-12,56.1-13.9l-22.9-22.7c-11.4-11.3-11.6-29.7-0.2-41.2
	C400.5,21.6,419,21.5,430.4,32.8z"/>
</svg>
