<?xml version="1.0" encoding="utf-8"?>
<svg version="1.1" xmlns="http://www.w3.org/2000/svg" xmlns:xlink="http://www.w3.org/1999/xlink" x="0px" y="0px"
	 viewBox="0 0 512 512">
	<path d="M256,127.8c-70.7,0-128.2,57.5-128.2,128.2S185.3,384.3,256,384.3c70.7,0,128.2-57.5,128.2-128.2
		S326.7,127.8,256,127.8z"/>
	<path d="M256,90.1c-13.8,0-25-11.2-25-25V25c0-13.8,11.2-25,25-25c13.8,0,25,11.2,25,25v40
		C281,78.9,269.8,90.1,256,90.1z"/>
	<path d="M256,421.9c-13.8,0-25,11.2-25,25v40c0,13.8,11.2,25,25,25c13.8,0,25-11.2,25-25v-40
		C281,433.1,269.8,421.9,256,421.9z"/>
	<path d="M373.3,138.7c-9.8-9.8-9.8-25.6,0-35.4L401.6,75c9.8-9.8,25.6-9.8,35.4,0c9.8,9.8,9.8,25.6,0,35.4
		l-28.3,28.3C398.9,148.4,383.1,148.4,373.3,138.7z"/>
	<path d="M138.7,373.3c-9.8-9.8-25.6-9.8-35.4,0L75,401.6c-9.8,9.8-9.8,25.6,0,35.4c9.8,9.8,25.6,9.8,35.4,0
		l28.3-28.3C148.4,398.9,148.4,383.1,138.7,373.3z"/>
	<path d="M421.9,256c0-13.8,11.2-25,25-25h40c13.8,0,25,11.2,25,25c0,13.8-11.2,25-25,25h-40
		C433.1,281,421.9,269.8,421.9,256z"/>
	<path d="M90.1,256c0-13.8-11.2-25-25-25H25c-13.8,0-25,11.2-25,25c0,13.8,11.2,25,25,25h40
		C78.9,281,90.1,269.8,90.1,256z"/>
	<path d="M373.3,373.3c9.8-9.8,25.6-9.8,35.4,0l28.3,28.3c9.8,9.8,9.8,25.6,0,35.4s-25.6,9.8-35.4,0l-28.3-28.3
		C363.5,398.9,363.5,383.1,373.3,373.3z"/>
	<path d="M138.7,138.7c9.8-9.8,9.8-25.6,0-35.4L110.4,75c-9.8-9.8-25.6-9.8-35.4,0c-9.8,9.8-9.8,25.6,0,35.4
		l28.3,28.3C113.1,148.5,128.9,148.5,138.7,138.7z"/>
</svg>
